<?xml version="1.0" encoding="UTF-8"?><svg id="Ebene_1" xmlns="http://www.w3.org/2000/svg" viewBox="0 0 161.83 129.46"><defs><style>.cls-1{fill:#233519;}.cls-1,.cls-2,.cls-3,.cls-4{stroke-width:0px;}.cls-2{fill:#35a047;}.cls-3{fill:#282828;}.cls-4{fill:#dc8686;}</style></defs><path class="cls-4" d="M161.83,16.75v95.96c0,9.25-7.5,16.75-16.75,16.75h-23.49c7.13-4.53,11.87-12.51,11.87-21.57V21.58c0-9.06-4.74-17.04-11.87-21.58h23.49c9.25,0,16.75,7.5,16.75,16.75Z"/><path class="cls-3" d="M155.86,97.48c-.75.69-1.96,1.04-3.63,1.04h-1.63v-3.37h2.08c.83,0,1.24-.27,1.24-.82,0-.31-.09-.52-.26-.64-.17-.12-.47-.18-.88-.18-.54,0-.99.07-1.35.2-.36.13-.65.3-.89.51-.24.21-.61.57-1.12,1.11l-1.44,1.47c-1.09,1.14-2.29,1.71-3.61,1.71-1.42,0-2.51-.33-3.25-1.01-.74-.67-1.12-1.65-1.12-2.94,0-1.54.4-2.65,1.19-3.33s2.04-1.02,3.74-1.02v3.49l-1.15.02c-.22,0-.39.06-.52.19-.13.13-.19.3-.19.53,0,.27.07.46.21.6s.34.2.58.2c.54,0,1.11-.32,1.69-.96l1.86-1.99c.44-.46.86-.85,1.25-1.16.4-.31.86-.55,1.4-.74.54-.19,1.18-.28,1.91-.28,1.64,0,2.89.31,3.74.93.85.62,1.27,1.64,1.27,3.06,0,1.55-.38,2.68-1.13,3.37Z"/><path class="cls-3" d="M156.83,89.46l-16.68-1.65v-5.8l16.68-1.63v3.25l-2.7.24v2.07l2.7.2v3.33ZM151.47,85.67v-1.55l-8.49.76v.16l8.49.64Z"/><path class="cls-3" d="M156.83,79.34h-16.68v-5.22l10.18-1.43-10.18-1.43v-5.26h16.68v3.13h-12.02l12.02,1.97v3.07l-12.02,2.09h12.02v3.09Z"/><path class="cls-3" d="M140.15,64.47v-4.52c0-1.37.43-2.34,1.29-2.93.86-.58,2.12-.88,3.78-.88s2.91.26,3.75.78c.84.52,1.26,1.45,1.26,2.79v1.39h6.6v3.37h-16.68ZM147.22,60.91c0-.41-.07-.71-.22-.91-.15-.19-.36-.32-.64-.38-.28-.06-.68-.09-1.19-.09-.7,0-1.2.08-1.51.24-.31.16-.47.48-.47.96v.38h4.04v-.2Z"/><path class="cls-3" d="M156.83,55.07h-16.68v-3.43h13.85v-3.53h2.84v6.95Z"/><path class="cls-3" d="M156.83,47.16h-16.68v-6.85h3.22v3.37h3.24v-3.23h3.15v3.23h3.83v-3.59h3.24v7.07Z"/><path class="cls-3" d="M155.86,38.26c-.75.69-1.96,1.04-3.63,1.04h-1.63v-3.37h2.08c.83,0,1.24-.27,1.24-.82,0-.31-.09-.52-.26-.64-.17-.12-.47-.18-.88-.18-.54,0-.99.07-1.35.2-.36.13-.65.3-.89.51-.24.21-.61.57-1.12,1.11l-1.44,1.47c-1.09,1.14-2.29,1.71-3.61,1.71-1.42,0-2.51-.33-3.25-1.01-.74-.67-1.12-1.65-1.12-2.94,0-1.54.4-2.65,1.19-3.33s2.04-1.02,3.74-1.02v3.49l-1.15.02c-.22,0-.39.06-.52.19-.13.13-.19.3-.19.53,0,.27.07.46.21.6s.34.2.58.2c.54,0,1.11-.32,1.69-.96l1.86-1.99c.44-.46.86-.85,1.25-1.16.4-.31.86-.55,1.4-.74.54-.19,1.18-.28,1.91-.28,1.64,0,2.89.31,3.74.93.85.62,1.27,1.64,1.27,3.06,0,1.55-.38,2.68-1.13,3.37Z"/><path class="cls-2" d="M129.46,21.58v86.31c0,10.83-7.99,19.81-18.4,21.34-1.04.15-2.09.23-3.17.23H21.58c-11.92,0-21.58-9.66-21.58-21.57V21.58C0,9.66,9.66,0,21.58,0h86.31c1.08,0,2.13.08,3.17.23,10.41,1.53,18.4,10.51,18.4,21.35Z"/><path class="cls-1" d="M42.33,31.58v53.04h10.49v13.27h-27.73V31.58h17.24Z"/><path class="cls-1" d="M104.38,60.45h-17.24v-11.53c0-3.35-.18-5.44-.55-6.28-.37-.83-1.18-1.25-2.44-1.25-1.42,0-2.32.51-2.7,1.52-.38,1.01-.57,3.2-.57,6.55v30.8c0,3.22.19,5.32.57,6.31.38.98,1.24,1.47,2.58,1.48,1.28,0,2.13-.49,2.53-1.48.4-.99.6-3.3.59-6.93v-8.34h17.24v2.58c0,6.86-.48,11.73-1.45,14.6-.97,2.87-3.11,5.39-6.43,7.55-3.32,2.16-7.41,3.24-12.27,3.24s-9.22-.91-12.49-2.74c-3.27-1.83-5.44-4.36-6.51-7.6-1.06-3.24-1.6-8.1-1.6-14.6v-19.38c0-4.78.16-8.36.49-10.75.33-2.39,1.3-4.69,2.93-6.9,1.62-2.21,3.88-3.95,6.76-5.22,2.88-1.27,6.19-1.91,9.93-1.9,5.08,0,9.27.98,12.57,2.95s5.47,4.41,6.51,7.33c1.04,2.93,1.56,7.49,1.56,13.68v6.31Z"/></svg>